<svg width="54" height="45" viewBox="0 0 54 45" fill="none" xmlns="http://www.w3.org/2000/svg">
<path d="M25.354 2.08023C26.9782 1.85361 28.6684 2.10856 30.1415 2.82622C32.1056 3.76106 33.6731 5.48909 34.4097 7.53818C35.3445 10.0689 34.9385 13.0622 33.3426 15.2435C31.9262 17.2737 29.5561 18.6052 27.082 18.7468C24.6175 18.9357 22.1057 17.9347 20.4248 16.1312C19.3295 14.9791 18.5741 13.506 18.2908 11.9385C17.8942 9.91778 18.2908 7.75537 19.3767 6.00845C20.6609 3.89326 22.9083 2.40129 25.354 2.08023Z" fill="white"/>
<path d="M10.9632 9.8708C12.3702 9.68194 13.8433 9.99355 15.0614 10.7395C16.2229 11.4477 17.1388 12.5431 17.6393 13.8179C18.1681 15.1682 18.2059 16.698 17.7432 18.0672C17.1105 20.0029 15.4675 21.5705 13.5033 22.1276C12.0208 22.5525 10.3778 22.4014 8.99912 21.7121C7.64879 21.0417 6.56287 19.8707 5.9963 18.4827C5.44862 17.1701 5.37307 15.6592 5.78856 14.2995C6.44956 11.9671 8.56475 10.1541 10.9632 9.8708Z" fill="#B756FE"/>
<path d="M40.5097 9.86104C41.8695 9.70051 43.2859 9.9838 44.4663 10.692C45.6561 11.4002 46.6098 12.5145 47.1103 13.8081C47.6863 15.2718 47.6863 16.9526 47.0914 18.4068C46.5343 19.8327 45.4295 21.0225 44.0602 21.7023C43.0593 22.2123 41.9073 22.42 40.793 22.3445C38.81 22.2123 36.9404 21.0413 35.9205 19.3416C34.5796 17.2453 34.7213 14.3464 36.2227 12.3728C37.2236 10.9847 38.81 10.0593 40.5097 9.86104Z" fill="#B756FE"/>
<path d="M21.5297 20.5315C22.1813 20.4749 22.8423 20.4937 23.4938 20.4937C25.9206 20.4937 28.338 20.4937 30.7648 20.4937C32.4456 20.4843 34.117 21.1075 35.3823 22.2218C36.5721 23.2605 37.4031 24.7052 37.658 26.2633C37.7997 27.0093 37.7619 27.7742 37.7714 28.539C37.7714 32.8827 37.7714 37.217 37.7714 41.5607C37.7902 42.0989 37.4692 42.6372 36.9687 42.8638C36.6288 43.0338 36.2322 42.996 35.8639 43.0054C29.4711 43.0054 23.0878 43.0054 16.695 43.0054C15.9207 43.0432 15.2219 42.3444 15.2691 41.5701C15.2691 36.8865 15.2691 32.1934 15.2691 27.5098C15.2691 25.9895 15.7696 24.4692 16.695 23.2605C17.847 21.7308 19.6411 20.7204 21.5297 20.5315Z" fill="white"/>
<path d="M4.6176 25.9801C5.84516 24.8375 7.48821 24.1765 9.15959 24.1388C10.4627 24.1199 11.7658 24.1293 13.0689 24.1293C12.6534 25.3002 12.4646 26.5372 12.474 27.7837C12.474 31.9102 12.474 36.0273 12.474 40.1538C12.4835 41.1075 12.3985 42.0801 12.7101 42.9961C11.0765 42.9961 9.45232 42.9961 7.81871 42.9961C7.12939 42.9866 6.44006 43.0244 5.75073 42.9111C4.96698 42.76 4.23988 42.3917 3.65443 41.844C2.85179 41.0886 2.39853 39.9933 2.35132 38.879V30.9376C2.40798 29.0679 3.2295 27.236 4.6176 25.9801Z" fill="#B756FE"/>
<path d="M39.981 24.1292C41.133 24.1198 42.285 24.1292 43.4276 24.1292C44.1264 24.1292 44.8346 24.1859 45.505 24.3653C47.0253 24.7619 48.3945 25.7061 49.3294 26.9715C50.1792 28.1141 50.6513 29.5116 50.6891 30.9375V38.8789C50.6419 39.5116 50.5191 40.1537 50.217 40.7202C49.6315 41.8723 48.4795 42.7221 47.2047 42.9299C46.5437 43.0337 45.8827 42.996 45.2123 43.0054C43.5787 43.0054 41.9545 43.0054 40.3209 43.0054C40.4814 42.486 40.5664 41.9384 40.557 41.3907C40.557 36.792 40.557 32.1934 40.557 27.6042C40.5759 26.4144 40.3681 25.2434 39.981 24.1292Z" fill="#B756FE"/>
</svg>
